<svg xmlns="http://www.w3.org/2000/svg" xmlns:xlink="http://www.w3.org/1999/xlink" viewBox="0 0 1125 2436"><defs><style>.cls-1{fill:#282b33;}.cls-2{fill:url(#radial-gradient);}.cls-3{fill:url(#radial-gradient-3);}.cls-4{fill:url(#radial-gradient-4);}.cls-5{fill:url(#radial-gradient-6);}.cls-6{fill:url(#radial-gradient-7);}.cls-7{fill:url(#radial-gradient-9);}</style><radialGradient id="radial-gradient" cx="1.77" cy="2436.09" r="3.57" gradientTransform="matrix(-317.4, 296.13, 317.82, 340.66, -773681.95, -828238.23)" gradientUnits="userSpaceOnUse"><stop offset="0" stop-color="#ff5668"/><stop offset="1" stop-color="#e54d5d"/></radialGradient><radialGradient id="radial-gradient-3" cx="0.68" cy="2435.1" r="0.08" gradientTransform="matrix(115.94, 442.23, 464.63, -92.25, -1131543.34, 226503.19)" xlink:href="#radial-gradient"/><radialGradient id="radial-gradient-4" cx="0.22" cy="2436.17" r="0.07" gradientTransform="matrix(-192.59, -415.82, -442.11, 173.18, 1078368.5, -420028.21)" xlink:href="#radial-gradient"/><radialGradient id="radial-gradient-6" cx="0.64" cy="2436.21" r="3.05" gradientTransform="matrix(261.39, -346.93, -372.34, -280.54, 908253.97, 685444.32)" xlink:href="#radial-gradient"/><radialGradient id="radial-gradient-7" cx="265.96" cy="1518.04" r="0.07" gradientTransform="matrix(109.53, -427.33, -439.58, -138.53, 639055.71, 324172.47)" xlink:href="#radial-gradient"/><radialGradient id="radial-gradient-9" cx="265.15" cy="1520.58" r="3.14" gradientTransform="matrix(410.16, -102.49, -110.81, -435.64, 60653.24, 689789.1)" xlink:href="#radial-gradient"/></defs><g id="Layer_2" data-name="Layer 2"><g id="Layer_2-2" data-name="Layer 2"><rect class="cls-1" width="1125" height="2436"/><path class="cls-2" d="M137,1584.2c26.47,153.76-76.61,360-20.08,489.67s273.37,182.21,348.23,273.83c21.93,26.87,31.45,57.28,31.23,88.3h33.83c5-37.73-3.4-75.45-30-108-75.09-91.76-292.42-144.21-349.18-274.14s46.39-336.65,19.74-490.71C151.78,1458.38,73.36,1378,0,1364.39v31.89C62.19,1424.11,121,1495.4,137,1584.2Z"/><path class="cls-2" d="M496.42,2436c.22-31-9.3-61.43-31.23-88.3C390.33,2256.08,173.5,2203.57,117,2073.87S163.51,1738,137,1584.2C121,1495.4,62.19,1424.11,0,1396.28V2436Z"/><path class="cls-3" d="M496.42,2436c.22-31-9.3-61.43-31.23-88.3C390.33,2256.08,173.5,2203.57,117,2073.87S163.51,1738,137,1584.2C121,1495.4,62.19,1424.11,0,1396.28V2436Z"/><path class="cls-4" d="M861.1,1699.18c-76.14-65.6-38.56-186.53,42.64-251.94,59.27-48.52,141.91-66.61,221.26-69v-4.36c-91.76-3.38-195.3,11.49-265.67,69.36-81,65.56-118.32,186.52-42.07,251.93,68.26,58.49,226.11,74.13,307.74,147.35v-26.1C1039.54,1767.72,918.5,1748.58,861.1,1699.18Z"/><path class="cls-4" d="M903.74,1447.24c-81.2,65.41-118.78,186.34-42.64,251.94,57.4,49.4,178.44,68.54,263.9,117.22V1378.22C1045.65,1380.63,963,1398.72,903.74,1447.24Z"/><path class="cls-5" d="M903.74,1447.24c-81.2,65.41-118.78,186.34-42.64,251.94,57.4,49.4,178.44,68.54,263.9,117.22V1378.22C1045.65,1380.63,963,1398.72,903.74,1447.24Z"/><path class="cls-6" d="M669.49,790.18c-95.66,31.47-171-107.78-128.26-233.67C585,431.22,747.85,319.9,759.05,200.21,765.25,133.88,724.62,65.05,684,0H630c46.08,75.43,105.09,158,97.58,237-11.35,119.39-174,230.2-217.85,355.13-42.85,125.52,32.12,264.56,127.6,233.31,40.11-13.52,83.61-57.82,129.18-109.77C732.62,751.58,700.09,779.82,669.49,790.18Z"/><path class="cls-6" d="M992.49,483.28C949.12,510.26,906,555.89,864.11,604c31.59-34,63.69-64.27,95.93-84.26,55.53-34.43,111.66-38.33,164.78-35V447C1081.53,447.58,1036.8,455.7,992.49,483.28Z"/><path class="cls-7" d="M864.11,604c-33.24,35.75-65.92,75.55-97.59,111.66C798,682.33,830.69,642.39,864.11,604Z"/><path class="cls-6" d="M992.49,483.28c44.31-27.58,89-35.7,132.33-36.24V0H684c40.58,65,81.21,133.85,75,200.18-11.2,119.69-174.06,231-217.82,356.3-42.75,125.89,32.6,265.14,128.26,233.67,30.6-10.36,63.13-38.6,97-74.5,31.67-36.11,64.35-75.91,97.59-111.66C906,555.89,949.12,510.26,992.49,483.28Z"/><path class="cls-7" d="M992.49,483.28c44.31-27.58,89-35.7,132.33-36.24V0H684c40.58,65,81.21,133.85,75,200.18-11.2,119.69-174.06,231-217.82,356.3-42.75,125.89,32.6,265.14,128.26,233.67,30.6-10.36,63.13-38.6,97-74.5,31.67-36.11,64.35-75.91,97.59-111.66C906,555.89,949.12,510.26,992.49,483.28Z"/></g></g></svg>