<svg xmlns="http://www.w3.org/2000/svg" xmlns:xlink="http://www.w3.org/1999/xlink" viewBox="0 0 1126.29 2436.12"><defs><style>.cls-1{fill:#282b33;}.cls-2{fill:url(#radial-gradient);}.cls-3{fill:url(#radial-gradient-3);}.cls-4{fill:url(#radial-gradient-4);}.cls-5{fill:url(#radial-gradient-6);}.cls-6{fill:url(#radial-gradient-7);}.cls-7{fill:url(#radial-gradient-9);}</style><radialGradient id="radial-gradient" cx="2709.55" cy="1626.28" r="3.54" gradientTransform="matrix(-317.4, 296.13, 317.82, 340.66, 343200.9, -1354282.2)" gradientUnits="userSpaceOnUse"><stop offset="0" stop-color="#ff5668"/><stop offset="1" stop-color="#e54d5d"/></radialGradient><radialGradient id="radial-gradient-3" cx="2704.15" cy="1623.93" r="0.08" gradientTransform="matrix(115.94, 442.23, 464.63, -92.25, -1068034.52, -1043954.51)" xlink:href="#radial-gradient"/><radialGradient id="radial-gradient-4" cx="2705.55" cy="1633.37" r="0.08" gradientTransform="matrix(-192.59, -415.82, -442.11, 173.18, 1244553.54, 844014.37)" xlink:href="#radial-gradient"/><radialGradient id="radial-gradient-6" cx="2701.57" cy="1632.47" r="3.54" gradientTransform="matrix(261.39, -346.93, -372.34, -280.54, -96915.05, 1397077.21)" xlink:href="#radial-gradient"/><radialGradient id="radial-gradient-7" cx="2704.34" cy="1634.33" r="0.08" gradientTransform="matrix(128.38, -439.85, -446.88, -160.3, 384062.6, 1451872.3)" xlink:href="#radial-gradient"/><radialGradient id="radial-gradient-9" cx="2700.12" cy="1632.05" r="3.54" gradientTransform="matrix(425.52, -91.18, -97.86, -456.69, -988286.41, 991910.82)" xlink:href="#radial-gradient"/></defs><g id="Layer_2" data-name="Layer 2"><g id="Layer_3" data-name="Layer 3"><rect class="cls-1" x="0.3" width="1125.98" height="2436.12"/><path class="cls-2" d="M193.12,1521.3C219.41,1674,117,1878.77,173.18,2007.57S444.65,2188.51,519,2279.5c38.06,46.65,38.49,104,15.4,156.62h25.4c32.22-57.64,36.91-123.7-6-176.17-74.56-91.12-290.38-143.21-346.74-272.23s46.06-334.31,19.6-487.3C202.62,1368.06,83.17,1274.87,0,1307.6v14.6C78.67,1320.25,172.24,1405.89,193.12,1521.3Z"/><path class="cls-2" d="M534.39,2436.12c23.09-52.6,22.66-110-15.4-156.62-74.34-91-289.67-143.14-345.81-271.93S219.41,1674,193.12,1521.3C172.24,1405.89,78.67,1320.25,0,1322.2V2436.12Z"/><path class="cls-3" d="M534.39,2436.12c23.09-52.6,22.66-110-15.4-156.62-74.34-91-289.67-143.14-345.81-271.93S219.41,1674,193.12,1521.3C172.24,1405.89,78.67,1320.25,0,1322.2V2436.12Z"/><path class="cls-4" d="M878.54,1775.33c-88.54-76.28-44.84-216.9,49.59-293,54.18-44.36,125.16-66.85,197.87-75.8v-9.39c-89.91,3.9-182.6,25.49-249.51,80.51-94.22,76.24-137.59,216.89-48.92,293,64.94,55.65,199.61,77.95,298.43,130.84V1883C1035.93,1845.47,932.8,1822,878.54,1775.33Z"/><path class="cls-4" d="M928.13,1482.37c-94.43,76.06-138.13,216.68-49.59,293C932.8,1822,1035.93,1845.47,1126,1883V1406.57C1053.29,1415.52,982.31,1438,928.13,1482.37Z"/><path class="cls-5" d="M928.13,1482.37c-94.43,76.06-138.13,216.68-49.59,293C932.8,1822,1035.93,1845.47,1126,1883V1406.57C1053.29,1415.52,982.31,1438,928.13,1482.37Z"/><path class="cls-6" d="M493.05,778.4c56.05-145.21,249.88-269,267.87-409C776.76,246.14,655.57,110.5,614.63.12H566C583.63,116.56,741,272,722.85,411.26,704.69,550.9,511.12,674.11,455,818.88c-55,145.52,26.28,311.86,138.5,279.2,47.16-14.18,99.53-64.33,154.64-123.39-40.88,40.71-79.85,72.48-115.82,83.36C519.87,1091,438.14,924.34,493.05,778.4Z"/><path class="cls-6" d="M1020.3,711.45C968.8,741.29,916.84,793,866.14,847.75c38.11-38.53,76.66-72.75,115-94.85,49.06-28.33,97.81-36.8,144.91-36.77V676.61A269.79,269.79,0,0,0,1020.3,711.45Z"/><path class="cls-7" d="M866.14,847.75c-40.11,40.56-79.73,85.9-118,126.94C786.09,936.89,825.72,891.38,866.14,847.75Z"/><path class="cls-6" d="M1020.3,711.45A269.79,269.79,0,0,1,1126,676.61V.12H614.63c40.94,110.38,162.13,246,146.29,369.28-18,140-211.82,263.79-267.87,409C438.14,924.34,519.87,1091,632.3,1058.05c36-10.88,74.94-42.65,115.82-83.36,38.29-41,77.91-86.38,118-126.94C916.84,793,968.8,741.29,1020.3,711.45Z"/><path class="cls-7" d="M1020.3,711.45A269.79,269.79,0,0,1,1126,676.61V.12H614.63c40.94,110.38,162.13,246,146.29,369.28-18,140-211.82,263.79-267.87,409C438.14,924.34,519.87,1091,632.3,1058.05c36-10.88,74.94-42.65,115.82-83.36,38.29-41,77.91-86.38,118-126.94C916.84,793,968.8,741.29,1020.3,711.45Z"/></g></g></svg>