<svg xmlns="http://www.w3.org/2000/svg" xmlns:xlink="http://www.w3.org/1999/xlink" viewBox="0 0 1125 2436"><defs><style>.cls-1{fill:#282b33;}.cls-2{fill:url(#radial-gradient);}.cls-3{fill:url(#radial-gradient-3);}.cls-4{fill:url(#radial-gradient-4);}.cls-5{fill:url(#radial-gradient-6);}.cls-6{fill:url(#radial-gradient-7);}.cls-7{fill:url(#radial-gradient-9);}</style><radialGradient id="radial-gradient" cx="1.95" cy="2436.06" r="3.57" gradientTransform="matrix(-317.4, 296.13, 317.82, 340.66, -773615.21, -828279.81)" gradientUnits="userSpaceOnUse"><stop offset="0" stop-color="#ff5668"/><stop offset="1" stop-color="#e54d5d"/></radialGradient><radialGradient id="radial-gradient-3" cx="0.86" cy="2435.07" r="0.08" gradientTransform="matrix(115.94, 442.23, 464.63, -92.25, -1131548.75, 226421.72)" xlink:href="#radial-gradient"/><radialGradient id="radial-gradient-4" cx="0.4" cy="2436.14" r="0.07" gradientTransform="matrix(-192.59, -415.82, -442.11, 173.18, 1078388.59, -419948.88)" xlink:href="#radial-gradient"/><radialGradient id="radial-gradient-6" cx="0.81" cy="2436.18" r="3.05" gradientTransform="matrix(261.39, -346.93, -372.34, -280.54, 908195.76, 685496.79)" xlink:href="#radial-gradient"/><radialGradient id="radial-gradient-7" cx="2.44" cy="2435.17" r="0.07" gradientTransform="matrix(-247.72, -385.53, -414.23, 232.08, 1010387.35, -564117.93)" xlink:href="#radial-gradient"/><radialGradient id="radial-gradient-9" cx="2.76" cy="2437.51" r="3.05" gradientTransform="matrix(210.5, -379.76, -407.58, -225.93, 993951.52, 551794.21)" xlink:href="#radial-gradient"/></defs><g id="Layer_2" data-name="Layer 2"><g id="Layer_1-2" data-name="Layer 1"><rect class="cls-1" width="1125" height="2436"/><path class="cls-2" d="M137,1584.2c26.47,153.76-76.61,360-20.08,489.67s273.37,182.21,348.23,273.83c21.93,26.87,31.45,57.28,31.23,88.3h33.83c5-37.73-3.4-75.45-30-108-75.09-91.76-292.42-144.21-349.18-274.14s46.39-336.65,19.74-490.71C151.78,1458.38,73.36,1378,0,1364.39v31.89C62.19,1424.11,121,1495.4,137,1584.2Z"/><path class="cls-2" d="M496.42,2436c.22-31-9.3-61.43-31.23-88.3C390.33,2256.08,173.5,2203.57,117,2073.87S163.51,1738,137,1584.2C121,1495.4,62.19,1424.11,0,1396.28V2436Z"/><path class="cls-3" d="M496.42,2436c.22-31-9.3-61.43-31.23-88.3C390.33,2256.08,173.5,2203.57,117,2073.87S163.51,1738,137,1584.2C121,1495.4,62.19,1424.11,0,1396.28V2436Z"/><path class="cls-4" d="M861.1,1699.18c-76.14-65.6-38.56-186.53,42.64-251.94,59.27-48.52,141.91-66.61,221.26-69v-4.36c-91.76-3.38-195.3,11.49-265.67,69.36-81,65.56-118.32,186.52-42.07,251.93,68.26,58.49,226.11,74.13,307.74,147.35v-26.1C1039.54,1767.72,918.5,1748.58,861.1,1699.18Z"/><path class="cls-4" d="M903.74,1447.24c-81.2,65.41-118.78,186.34-42.64,251.94,57.4,49.4,178.44,68.54,263.9,117.22V1378.22C1045.65,1380.63,963,1398.72,903.74,1447.24Z"/><path class="cls-5" d="M903.74,1447.24c-81.2,65.41-118.78,186.34-42.64,251.94,57.4,49.4,178.44,68.54,263.9,117.22V1378.22C1045.65,1380.63,963,1398.72,903.74,1447.24Z"/><path class="cls-6" d="M586.56,39.76A116.46,116.46,0,0,1,548.25,0h-9.09c4.49,35.08,21.46,66.52,54,87.47,85.21,54.75,275.62,40,356,130.63,38.24,43.09,51.66,109.84,61.93,180.71C999,311.11,989.3,223.07,942.56,170.38,862.18,79.79,671.77,94.5,586.56,39.76Z"/><path class="cls-6" d="M1056,574.27c-23.55-44.68-34-100.38-42.26-157.27,10.06,72.65,18.76,147.83,48.9,205A236.52,236.52,0,0,0,1125,695.92V653.21A236.62,236.62,0,0,1,1056,574.27Z"/><path class="cls-7" d="M1013.69,417q-1.26-9.13-2.57-18.19Q1012.38,407.92,1013.69,417Z"/><path class="cls-6" d="M1125,653.21V0H548.25a116.46,116.46,0,0,0,38.31,39.76c85.21,54.74,275.62,40,356,130.62,46.74,52.69,56.41,140.73,68.56,228.43q1.3,9.06,2.57,18.19c8.25,56.89,18.71,112.59,42.26,157.27A236.62,236.62,0,0,0,1125,653.21Z"/><path class="cls-7" d="M1125,653.21V0H548.25a116.46,116.46,0,0,0,38.31,39.76c85.21,54.74,275.62,40,356,130.62,46.74,52.69,56.41,140.73,68.56,228.43q1.3,9.06,2.57,18.19c8.25,56.89,18.71,112.59,42.26,157.27A236.62,236.62,0,0,0,1125,653.21Z"/></g></g></svg>